<?xml version="1.0" standalone="no"?>
<!DOCTYPE svg PUBLIC "-//W3C//DTD SVG 20010904//EN"
 "http://www.w3.org/TR/2001/REC-SVG-20010904/DTD/svg10.dtd">
<svg version="1.0" xmlns="http://www.w3.org/2000/svg"
 width="274.000000pt" height="67.000000pt" viewBox="0 0 274.000000 67.000000"
 preserveAspectRatio="xMidYMid meet">
    <g transform="translate(0.000000,67.000000) scale(0.100000,-0.100000)"
fill="#000000" stroke="none">
        <path d="M718 621 c-57 -12 -83 -35 -129 -115 l-43 -75 -18 40 c-10 23 -26 43
-37 46 -11 3 -21 17 -25 34 -4 20 -14 33 -33 40 -33 12 -126 3 -163 -16 -60
-31 -172 -180 -208 -278 -36 -95 -26 -158 28 -190 40 -24 143 -22 198 3 42 19
43 19 62 0 15 -15 34 -20 78 -20 53 0 61 3 89 32 48 52 142 184 212 299 35 58
74 110 85 115 14 6 22 20 24 40 3 28 -1 33 -29 43 -35 12 -37 12 -91 2z m32
-44 c0 -7 -8 -17 -19 -24 -10 -6 -53 -69 -97 -139 -43 -71 -96 -151 -119 -179
-22 -27 -51 -65 -63 -82 -18 -25 -31 -33 -54 -33 l-31 0 7 83 c19 243 19 247
4 247 -8 0 -25 -11 -38 -25 -13 -14 -27 -25 -32 -25 -15 0 -8 38 12 74 57 95
-59 13 -131 -94 -46 -66 -77 -155 -65 -185 9 -23 57 -18 129 15 69 31 97 37
97 20 0 -32 -139 -110 -197 -110 -45 0 -62 9 -78 40 -47 91 132 379 251 404
37 8 69 -16 61 -45 -3 -12 2 -19 19 -23 13 -4 31 -18 41 -32 15 -23 15 -34 3
-102 -7 -42 -15 -93 -17 -112 l-4 -35 28 30 c16 17 68 97 116 177 48 81 95
152 105 157 24 15 72 13 72 -2z m-435 -217 c4 -7 13 -7 26 0 21 12 24 -1 13
-59 -5 -26 -13 -33 -48 -42 -22 -6 -53 -17 -68 -25 -26 -14 -28 -13 -28 6 0
31 47 118 67 123 29 8 32 7 38 -3z"/>
        <path d="M2053 610 c-54 -12 -51 -7 -144 -217 -17 -40 -33 -73 -35 -73 -1 0
-16 14 -34 31 -29 30 -34 31 -98 27 -37 -2 -82 -11 -101 -21 -19 -9 -35 -17
-37 -17 -2 0 10 29 27 64 32 68 41 145 19 171 -8 9 -30 15 -60 15 -45 0 -50
-3 -111 -67 -53 -57 -64 -65 -67 -48 -7 36 -22 44 -78 44 l-54 -1 -68 -97
c-37 -53 -78 -112 -90 -132 -22 -37 -61 -69 -83 -69 -7 0 -18 8 -25 18 -11 14
-15 14 -23 3 -5 -8 -17 -11 -29 -7 -27 9 -75 -47 -66 -78 13 -43 43 -56 132
-56 64 0 92 5 123 21 26 13 45 17 52 11 7 -5 35 -12 63 -16 42 -5 55 -3 76 14
l26 20 6 -35 c9 -47 47 -75 103 -75 50 0 117 25 108 40 -4 6 11 11 37 12 24 1
81 3 128 5 47 2 114 3 150 3 254 -4 431 -3 463 1 21 3 51 16 67 28 17 12 30
18 30 13 0 -4 9 -18 20 -30 18 -19 31 -22 96 -22 79 0 126 16 143 49 16 29
-13 61 -55 61 -32 0 -35 2 -28 23 3 12 13 34 20 49 20 38 17 65 -10 125 -27
57 -41 64 -106 55 -42 -7 -46 -10 -71 -62 -15 -30 -43 -73 -62 -95 l-36 -40
-1 47 c0 66 -24 81 -106 70 -32 -5 -65 -11 -73 -13 -9 -3 -14 5 -15 23 -2 32
-34 71 -53 64 -18 -7 -16 4 7 55 11 24 20 61 20 82 0 35 -1 37 -32 36 -18 -1
-48 -5 -65 -9z m11 -38 c3 -4 -11 -46 -30 -92 -19 -46 -34 -85 -34 -87 0 -1
12 2 26 7 45 18 64 13 64 -17 0 -18 -15 -41 -52 -78 -29 -29 -59 -54 -67 -57
-21 -6 -4 -48 26 -59 13 -5 44 -9 67 -9 41 0 44 2 50 31 10 52 44 96 91 119
35 17 48 19 64 10 38 -20 27 -59 -31 -112 -28 -26 -49 -51 -45 -54 3 -4 37 -3
74 1 68 7 68 7 133 74 36 37 76 91 89 119 30 64 46 71 71 29 26 -42 25 -89 -1
-153 -30 -71 -22 -88 36 -81 34 5 45 3 45 -7 0 -28 -98 -51 -128 -30 -29 20
-28 59 2 125 14 29 23 56 20 60 -2 4 -43 -31 -90 -77 -69 -67 -97 -87 -137
-99 -63 -19 -124 -19 -158 -1 -22 11 -30 11 -50 0 -13 -7 -45 -13 -71 -14 -41
0 -54 5 -86 35 l-39 35 -13 -25 c-15 -28 -47 -42 -62 -27 -6 6 -24 4 -50 -5
-35 -12 -43 -12 -64 2 -13 8 -24 23 -24 31 0 12 -10 8 -35 -15 -54 -47 -115
-39 -115 14 0 45 52 126 98 156 53 34 90 37 123 10 l24 -20 -23 -44 c-13 -25
-22 -55 -20 -68 3 -21 8 -24 38 -21 19 1 40 9 45 18 6 9 20 30 32 48 32 44 80
138 120 231 19 43 39 85 45 92 12 15 34 17 42 5z m-489 -63 c-1 -34 -16 -74
-63 -169 -69 -138 -82 -201 -49 -238 16 -18 16 -20 2 -26 -20 -7 -50 8 -59 30
-15 39 4 136 49 247 l24 59 -36 -38 c-73 -79 -148 -172 -165 -202 -20 -37 -42
-41 -58 -12 -10 19 -2 91 17 150 3 8 -7 -3 -22 -25 -39 -57 -105 -124 -139
-142 -63 -33 -169 -11 -153 31 5 12 17 14 56 9 80 -9 121 22 213 159 81 121
110 154 127 143 19 -11 12 -73 -14 -137 -36 -89 -31 -97 23 -37 165 187 226
249 236 246 6 -2 11 -24 11 -48z m515 -274 c0 -8 -7 -15 -15 -15 -26 0 -18 20
13 29 1 1 2 -6 2 -14z"/>
        <path d="M1994 335 c-10 -8 -14 -15 -8 -15 6 0 17 7 24 15 16 19 9 19 -16 0z"/>
        <path d="M1636 258 c-43 -41 -56 -78 -28 -78 22 0 88 63 95 91 8 31 -29 24
-67 -13z"/>
        <path d="M2200 270 c-6 -11 -7 -20 -2 -20 10 0 32 21 32 32 0 16 -19 8 -30
-12z"/>
    </g>
</svg>